<?xml version="1.0" encoding="UTF-8"?>
<svg version="1.1" xmlns="http://www.w3.org/2000/svg" width="346" height="286">
<path d="M0 0 C19.47 0 38.94 0 59 0 C60.22944573 13.523903 61.4110331 27.01021082 62.2890625 40.5546875 C62.39806881 42.20477841 62.50731702 43.85485336 62.61679077 45.50491333 C62.89862503 49.76237832 63.17726615 54.02004588 63.45513916 58.277771 C63.74152245 62.65666727 64.03106806 67.03535445 64.3203125 71.4140625 C64.88322613 79.94251177 65.44275166 88.47117869 66 97 C67.39158095 84.42385588 68.4069314 71.8416554 69.25390625 59.21875 C69.3072047 58.42560394 69.36050316 57.63245789 69.41541672 56.8152771 C69.85918321 50.19352046 70.29502527 43.57124585 70.73010254 36.94891357 C71.05748825 31.96906074 71.38777221 26.98941746 71.72208977 22.01002502 C71.87619615 19.69692792 72.02601402 17.38357879 72.17567444 15.07019043 C72.26997383 13.6594092 72.36448039 12.24864179 72.45922852 10.83789062 C72.58008568 8.9964447 72.58008568 8.9964447 72.7033844 7.11779785 C73 4 73 4 74 0 C93.47 0 112.94 0 133 0 C133 52.47 133 104.94 133 159 C119.47 159 105.94 159 92 159 C91.67 130.95 91.34 102.9 91 74 C88.69 102.05 86.38 130.1 84 159 C72.45 159 60.9 159 49 159 C46.69 130.95 44.38 102.9 42 74 C41.67 102.05 41.34 130.1 41 159 C27.47 159 13.94 159 0 159 C0 106.53 0 54.06 0 0 Z " fill="#1E459F" transform="translate(0,78)"/>
<path d="M0 0 C74.77777778 0 74.77777778 0 83 8 C87.0696489 13.5799152 89.11647176 17.98696423 89.14044189 24.94488525 C89.14615204 25.94010696 89.15186218 26.93532867 89.15774536 27.96070862 C89.15942215 29.58939125 89.15942215 29.58939125 89.16113281 31.25097656 C89.16858017 32.97358955 89.16858017 32.97358955 89.17617798 34.73100281 C89.19079542 38.53421628 89.19760111 42.33738804 89.203125 46.140625 C89.208877 48.78375245 89.21463473 51.42687989 89.22039795 54.07000732 C89.22996514 58.90618832 89.23586441 63.74236033 89.2388947 68.57854962 C89.24337161 75.68333699 89.26090512 82.7879316 89.2898953 89.89266038 C89.31417181 96.05747728 89.32184172 102.22221499 89.32357025 108.38707733 C89.32659479 111.00409748 89.33461659 113.62111686 89.34775543 116.23810577 C89.36483981 119.90270012 89.36292941 123.56682712 89.35644531 127.23144531 C89.3656601 128.30913681 89.37487488 129.38682831 89.3843689 130.49717712 C89.33397652 139.60448204 87.66547347 146.33452653 81 153 C57.36512899 170.11331169 34.02708864 159 0 159 C0 106.53 0 54.06 0 0 Z M41 23 C41 60.29 41 97.58 41 136 C43.97 135.505 43.97 135.505 47 135 C47.92909353 132.2127194 48.1255705 130.55045718 48.12698364 127.67321777 C48.12980347 126.78994308 48.13262329 125.9066684 48.13552856 124.99662781 C48.13249222 123.54713493 48.13249222 123.54713493 48.12939453 122.06835938 C48.13114685 121.04861526 48.13289917 120.02887115 48.13470459 118.97822571 C48.13911373 115.60004994 48.13618838 112.22192632 48.1328125 108.84375 C48.13348581 106.50109853 48.13445606 104.15844713 48.13571167 101.8157959 C48.13718737 96.90306941 48.13503816 91.99036109 48.13037109 87.07763672 C48.12467389 80.77236231 48.12795358 74.46713046 48.13394356 68.1618576 C48.1375526 63.32354409 48.136409 58.4852407 48.13381577 53.64692688 C48.13314745 51.32163996 48.13397161 48.99635214 48.13629532 46.67106628 C48.13882742 43.42456618 48.13497328 40.17813554 48.12939453 36.93164062 C48.13141876 35.96531204 48.13344299 34.99898346 48.13552856 34.00337219 C48.13270874 33.1200975 48.12988892 32.23682281 48.12698364 31.32678223 C48.12660662 30.55913795 48.12622959 29.79149368 48.12584114 29.00058746 C48.07256169 26.79093914 48.07256169 26.79093914 47 24 C44.03 23.505 44.03 23.505 41 23 Z " fill="#FABD32" transform="translate(251,78)"/>
<path d="M0 0 C1.02814316 0.00222061 2.05628632 0.00444122 3.11558533 0.00672913 C4.85727745 0.00684242 4.85727745 0.00684242 6.63415527 0.00695801 C8.52943214 0.01469994 8.52943214 0.01469994 10.46299744 0.02259827 C12.39193092 0.02472069 12.39193092 0.02472069 14.35983276 0.02688599 C17.78427561 0.03071034 21.20867628 0.0405399 24.63310242 0.05158997 C28.12522308 0.06180587 31.61735053 0.06638399 35.10948181 0.07142639 C41.96561897 0.08216225 48.82172806 0.09923767 55.67784119 0.12025452 C58.72208712 15.13859199 60.92220469 30.29861046 63.22253394 45.44411445 C63.68382903 48.47920385 64.14682779 51.51403242 64.60979873 54.54886657 C65.70114696 61.70306067 66.78966188 68.85768177 67.87632751 76.0125885 C68.99544971 83.38087167 70.11934524 90.74841575 71.24554414 98.11562032 C72.21644499 104.46800079 73.18446536 110.8208156 74.15016013 117.17398959 C74.72527924 120.95744871 75.30146902 124.74073663 75.88042259 128.52361107 C76.42303789 132.06991154 76.96204859 135.61674146 77.49829102 139.164011 C77.78920659 141.08246116 78.08378778 143.00035434 78.378479 144.91822815 C78.55084076 146.06313217 78.72320251 147.20803619 78.90078735 148.38763428 C79.05175212 149.37990367 79.20271688 150.37217306 79.35825634 151.39451122 C79.67784119 154.12025452 79.67784119 154.12025452 79.67784119 159.12025452 C65.81784119 159.12025452 51.95784119 159.12025452 37.67784119 159.12025452 C35.67784119 143.12025452 35.67784119 143.12025452 35.67784119 136.12025452 C29.73784119 136.12025452 23.79784119 136.12025452 17.67784119 136.12025452 C17.53346619 138.07962952 17.38909119 140.03900452 17.24034119 142.05775452 C16.02055446 157.77754125 16.02055446 157.77754125 14.67784119 159.12025452 C11.57532918 159.20899586 8.49515998 159.23543907 5.39268494 159.21791077 C4.461866 159.21649582 3.53104706 159.21508087 2.57202148 159.21362305 C-0.41357072 159.20800624 -3.39908911 159.19545091 -6.38465881 159.18275452 C-8.40353794 159.17774168 -10.42241824 159.1731784 -12.44129944 159.16908264 C-17.40161453 159.15803135 -22.36187414 159.14075547 -27.32215881 159.12025452 C-24.21523979 138.53612253 -21.10361455 117.95270693 -17.98633671 97.37014103 C-16.53914349 87.8139581 -15.09350953 78.25754409 -13.65150452 68.70057678 C-12.39510774 60.37376479 -11.13582786 52.04739491 -9.87303823 43.72154993 C-9.2040885 39.31033231 -8.53661552 34.89890232 -7.87259102 30.48694038 C-7.24825838 26.33901117 -6.62008888 22.1916817 -5.98890114 18.04479027 C-5.75726948 16.51833877 -5.52707128 14.991669 -5.29837418 13.46477509 C-4.98723014 11.38885188 -4.6710569 9.31375749 -4.35354614 7.23880005 C-4.17748368 6.07457551 -4.00142122 4.91035097 -3.82002354 3.7108469 C-3.13809744 0.16250843 -3.13809744 0.16250843 0 0 Z " fill="#CF2A2A" transform="translate(165.32215881347656,77.87974548339844)"/>
<path d="M0 0 C2.29612756 14.59681093 2.29612756 14.59681093 2 22 C1.37351562 22.12117188 0.74703125 22.24234375 0.1015625 22.3671875 C-0.71570313 22.53476562 -1.53296875 22.70234375 -2.375 22.875 C-3.59316406 23.11863281 -3.59316406 23.11863281 -4.8359375 23.3671875 C-7.18673923 23.86658932 -7.18673923 23.86658932 -9 26 C-14.38369879 27.45274412 -19.95078803 28.03827612 -25.5 28.4375 C-32.39513048 28.98989958 -38.78649472 30.90862085 -45.3125 33.125 C-48.87582689 34.28515294 -52.35831967 34.86907901 -56.09399414 35.16699219 C-62.81326928 35.71043762 -69.15063924 37.08188389 -75.6875 38.6875 C-86.95042291 41.37385876 -98.2498888 43.67826149 -109.62573242 45.8190918 C-119.78981073 47.73611158 -129.86919028 49.86719795 -140 52 C-93.47 52.33 -46.94 52.66 1 53 C1 60.26 1 67.52 1 75 C-65 75 -131 75 -199 75 C-199 68.07 -199 61.14 -199 54 C-200.01258235 49.1449463 -200.01258235 49.1449463 -201.34375 44.375 C-202.05191741 41.81210841 -202.04614923 39.64588911 -202 37 C-179.06211853 32.63087972 -156.12423706 28.26175944 -133.18635559 23.89263916 C-132.34153405 23.73171721 -131.49671251 23.57079525 -130.62629032 23.40499687 C-128.94748996 23.08523254 -127.26868434 22.76549577 -125.58987331 22.44578743 C-121.23587607 21.61658616 -116.88198771 20.78681886 -112.52825928 19.95620728 C-102.88917467 18.11772487 -93.24823545 16.29051171 -83.6015625 14.4921875 C-81.28642373 14.05877854 -78.9713205 13.62517972 -76.65625 13.19140625 C-73.11066505 12.52710371 -69.56490614 11.86381275 -66.01855469 11.20361328 C-62.52480862 10.55287337 -59.03187403 9.89792244 -55.5390625 9.2421875 C-54.48175934 9.0463205 -53.42445618 8.85045349 -52.33511353 8.64865112 C-47.1216089 7.66588004 -42.0849897 6.50364119 -37 5 C-35.43759892 4.70248797 -33.86831081 4.43762877 -32.29296875 4.21875 C-31.46369873 4.09991455 -30.63442871 3.9810791 -29.7800293 3.85864258 C-28.49672729 3.6811145 -28.49672729 3.6811145 -27.1875 3.5 C-21.13042098 2.634703 -15.12609474 1.74953511 -9.16796875 0.33203125 C-6.10596163 -0.13692479 -3.09149268 -0.04847938 0 0 Z " fill="#FCFCFC" transform="translate(342,0)"/>
<path d="M0 0 C0.68513672 -0.00386719 1.37027344 -0.00773437 2.07617188 -0.01171875 C7.1841133 -0.00169335 7.1841133 -0.00169335 9.4375 1.125 C9.8515625 3.19140625 9.8515625 3.19140625 10.0625 5.6875 C10.13726562 6.51378906 10.21203125 7.34007812 10.2890625 8.19140625 C10.33804688 8.82949219 10.38703125 9.46757812 10.4375 10.125 C11.0975 10.125 11.7575 10.125 12.4375 10.125 C12.4375 7.815 12.4375 5.505 12.4375 3.125 C19.3916895 4.68969264 24.15413694 8.95886807 28.24609375 14.6328125 C30.80372183 18.74219095 32.83922323 22.25452148 33.4375 27.125 C32.9425 27.62 32.9425 27.62 32.4375 28.125 C33.0975 28.455 33.7575 28.785 34.4375 29.125 C35.03536547 39.33299926 33.61343077 48.5626098 27 56.6640625 C24.93788913 58.59213617 23.24723102 59.125 20.4375 59.125 C20.7675 60.115 21.0975 61.105 21.4375 62.125 C19.71309635 63.11253064 17.98274974 64.08968806 16.25 65.0625 C15.28707031 65.60777344 14.32414062 66.15304688 13.33203125 66.71484375 C8.63101151 69.00508413 4.49640152 69.26299223 -0.6875 69.25 C-2.23824219 69.25386719 -2.23824219 69.25386719 -3.8203125 69.2578125 C-6.5625 69.125 -6.5625 69.125 -9.5625 68.125 C-10.75 64.5625 -10.75 64.5625 -11.5625 61.125 C-11.8925 62.775 -12.2225 64.425 -12.5625 66.125 C-21.43061861 63.35371293 -27.2139364 57.08813399 -31.5625 49.125 C-35.17414853 41.95117757 -34.60333716 31.88667421 -32.91015625 24.140625 C-31.98166583 21.6380843 -30.89530157 19.43651555 -29.5625 17.125 C-29.09972656 16.26261719 -28.63695312 15.40023437 -28.16015625 14.51171875 C-21.9937019 4.33480753 -11.60935233 -0.06589982 0 0 Z " fill="#D03131" transform="translate(192.5625,122.875)"/>
<path d="M0 0 C41.91 0 83.82 0 127 0 C127 7.26 127 14.52 127 22 C80.47 22 33.94 22 -14 22 C-9.50336265 14.13088464 -9.50336265 14.13088464 -7.67578125 11.54296875 C-7.28712891 10.98802734 -6.89847656 10.43308594 -6.49804688 9.86132812 C-6.10681641 9.30896484 -5.71558594 8.75660156 -5.3125 8.1875 C-2.44727194 4.2226458 -2.44727194 4.2226458 0 0 Z " fill="#FBFBFB" transform="translate(216,53)"/>
<path d="M0 0 C0.98405447 0.94130552 1.95381705 1.89773682 2.91015625 2.8671875 C3.94583053 3.86930053 4.98229102 4.87060165 6.01953125 5.87109375 C6.51904297 6.36109863 7.01855469 6.85110352 7.53320312 7.35595703 C10.09845829 9.82636389 12.83019788 12.10188632 15.546875 14.40234375 C16.97265625 15.7421875 16.97265625 15.7421875 17.97265625 17.7421875 C13.68265625 18.7321875 9.39265625 19.7221875 4.97265625 20.7421875 C11.90265625 21.2371875 11.90265625 21.2371875 18.97265625 21.7421875 C12.07665146 38.98219947 12.07665146 38.98219947 4.97265625 43.7421875 C-4.07618318 46.41269425 -13.87872307 45.43037542 -23.20147705 44.90948486 C-26.67942478 44.73390531 -30.15950121 44.65759823 -33.640625 44.57226562 C-40.44139545 44.39123781 -47.23375092 44.10212789 -54.02734375 43.7421875 C-54.01948853 43.14269287 -54.0116333 42.54319824 -54.00354004 41.92553711 C-53.97212226 39.17694511 -53.95277075 36.42839108 -53.93359375 33.6796875 C-53.92102539 32.73673828 -53.90845703 31.79378906 -53.89550781 30.82226562 C-53.86249579 24.50596551 -54.43209048 19.14964212 -56.37109375 13.1171875 C-57.07926116 10.55429591 -57.07349298 8.38807661 -57.02734375 5.7421875 C-50.46511155 4.42609823 -43.89951066 3.12795275 -37.33129883 1.84204102 C-35.09871804 1.40277844 -32.86693102 0.95946078 -30.63598633 0.51196289 C-27.42340522 -0.13169889 -24.20822292 -0.76057534 -20.9921875 -1.38671875 C-20.00024887 -1.58874405 -19.00831024 -1.79076935 -17.98631287 -1.99891663 C-11.23942795 -3.29214152 -5.80250147 -4.32754303 0 0 Z " fill="#FEFDFD" transform="translate(197.02734375,31.2578125)"/>
<path d="M0 0 C2.29612756 14.59681093 2.29612756 14.59681093 2 22 C1.37351562 22.12117188 0.74703125 22.24234375 0.1015625 22.3671875 C-0.71570313 22.53476562 -1.53296875 22.70234375 -2.375 22.875 C-3.18710937 23.03742187 -3.99921875 23.19984375 -4.8359375 23.3671875 C-7.18673923 23.86658932 -7.18673923 23.86658932 -9 26 C-14.38369879 27.45274412 -19.95078803 28.03827612 -25.5 28.4375 C-32.39513048 28.98989958 -38.78649472 30.90862085 -45.3125 33.125 C-46.199375 33.41375 -47.08625 33.7025 -48 34 C-48.969375 34.350625 -49.93875 34.70125 -50.9375 35.0625 C-54.52857729 34.98921271 -54.79267123 34.59395443 -57.1875 32.125 C-57.76628906 31.47917969 -58.34507812 30.83335938 -58.94140625 30.16796875 C-62.10404707 26.83729388 -65.73722872 24.13067385 -69.3515625 21.30859375 C-72.29693866 18.74116409 -74.52953714 16.02206695 -77 13 C-76.03698975 12.82871582 -75.07397949 12.65743164 -74.08178711 12.48095703 C-70.48233242 11.83975242 -66.88374944 11.19376473 -63.28540039 10.54638672 C-61.73289699 10.26775296 -60.18016534 9.99038763 -58.62719727 9.71435547 C-56.38495519 9.3155747 -54.14359491 8.9121208 -51.90234375 8.5078125 C-51.21663803 8.3868924 -50.53093231 8.26597229 -49.82444763 8.14138794 C-45.45695563 7.3476619 -41.26105037 6.23248313 -37 5 C-35.43759892 4.70248797 -33.86831081 4.43762877 -32.29296875 4.21875 C-31.04906372 4.04049683 -31.04906372 4.04049683 -29.7800293 3.85864258 C-28.49672729 3.6811145 -28.49672729 3.6811145 -27.1875 3.5 C-21.13042098 2.634703 -15.12609474 1.74953511 -9.16796875 0.33203125 C-6.10596163 -0.13692479 -3.09149268 -0.04847938 0 0 Z " fill="#FCFCFC" transform="translate(342,0)"/>
<path d="M0 0 C16.17 0 32.34 0 49 0 C46.69 3.96 44.38 7.92 42 12 C40.93579834 13.8773584 39.87159668 15.7547168 38.77514648 17.68896484 C36.79964751 20.43046382 35.7160927 21.75743654 32.49954224 22.84698486 C29.47861592 23.15886033 26.63059243 23.12770721 23.59765625 22.9765625 C22.51995468 22.96241302 21.44225311 22.94826355 20.33189392 22.9336853 C16.90587798 22.87791458 13.48652137 22.75251959 10.0625 22.625 C7.73381875 22.57481639 5.40503447 22.52919304 3.07617188 22.48828125 C-2.61813895 22.37831401 -8.3085939 22.21122744 -14 22 C-9.76422276 14.50027121 -9.76422276 14.50027121 -7.67578125 11.54296875 C-7.28712891 10.98802734 -6.89847656 10.43308594 -6.49804688 9.86132812 C-6.10681641 9.30896484 -5.71558594 8.75660156 -5.3125 8.1875 C-2.44727194 4.2226458 -2.44727194 4.2226458 0 0 Z " fill="#FBFBFB" transform="translate(216,53)"/>
<path d="M0 0 C6.27 0 12.54 0 19 0 C19 7.26 19 14.52 19 22 C8.11 22 -2.78 22 -14 22 C-9.50336265 14.13088464 -9.50336265 14.13088464 -7.67578125 11.54296875 C-7.28712891 10.98802734 -6.89847656 10.43308594 -6.49804688 9.86132812 C-6.10681641 9.30896484 -5.71558594 8.75660156 -5.3125 8.1875 C-2.44727194 4.2226458 -2.44727194 4.2226458 0 0 Z " fill="#050505" transform="translate(324,53)"/>
<path d="M0 0 C3.3 0 6.6 0 10 0 C11.32 3.63 12.64 7.26 14 11 C14.7115625 8.5559375 14.7115625 8.5559375 15.4375 6.0625 C16.875 1.125 16.875 1.125 18 0 C21.3 0 24.6 0 28 0 C28 8.25 28 16.5 28 25 C25.69 25 23.38 25 21 25 C20.67 21.04 20.34 17.08 20 13 C18.68 16.96 17.36 20.92 16 25 C14.35 25 12.7 25 11 25 C9.68 21.37 8.36 17.74 7 14 C6.67 17.63 6.34 21.26 6 25 C4.02 25 2.04 25 0 25 C0 16.75 0 8.5 0 0 Z " fill="#FFFFFF" transform="translate(142,249)"/>
<path d="M0 0 C12.54 0 25.08 0 38 0 C38 1.65 38 3.3 38 5 C35.69 5 33.38 5 31 5 C31 11.6 31 18.2 31 25 C29.02 25 27.04 25 25 25 C25 18.4 25 11.8 25 5 C19.06 5 13.12 5 7 5 C7 6.65 7 8.3 7 10 C9.97 10 12.94 10 16 10 C16 11.65 16 13.3 16 15 C13.03 15 10.06 15 7 15 C7 16.65 7 18.3 7 20 C10.96 20 14.92 20 19 20 C19 21.65 19 23.3 19 25 C12.73 25 6.46 25 0 25 C0 16.75 0 8.5 0 0 Z " fill="#FFFFFF" transform="translate(244,249)"/>
<path d="M0 0 C1.00023193 0.00523682 2.00046387 0.01047363 3.03100586 0.01586914 C4.1105957 0.0190918 5.19018555 0.02231445 6.30249023 0.02563477 C8.00695312 0.03820313 8.00695312 0.03820313 9.74584961 0.05102539 C11.45611328 0.05779297 11.45611328 0.05779297 13.20092773 0.06469727 C16.02845312 0.07652792 18.85587601 0.09301129 21.68334961 0.11352539 C18.55463654 8.09915153 14.9471516 17.05963492 7.68334961 22.11352539 C-0.10429796 24.20588497 -8.41727999 23.17233232 -16.31665039 22.11352539 C-13.43002583 16.79401664 -10.45397771 11.62987272 -7.06665039 6.61352539 C-6.38086914 5.59258789 -5.69508789 4.57165039 -4.98852539 3.51977539 C-2.63260284 0.12900836 -2.63260284 0.12900836 0 0 Z " fill="#FCFCFC" transform="translate(302.316650390625,52.886474609375)"/>
<path d="M0 0 C3.3792573 2.03005291 6.22397384 4.44794768 8 8 C8.64486862 12.00798089 8.8673096 15.5562631 6.73046875 19.11328125 C1.99431868 24.67912184 1.99431868 24.67912184 -1.91796875 25.30859375 C-6.62920205 25.57618531 -9.33499573 25.24366823 -13 22.125 C-16.09319107 19.16069189 -17.19373509 17.10423975 -17.4375 12.8125 C-17.414157 7.99606011 -15.76807452 5.71451254 -12.5078125 2.3125 C-8.86909242 -0.85488328 -4.58965425 -0.81610492 0 0 Z " fill="#FF0404" transform="translate(172,41)"/>
<path d="M0 0 C2.29612756 14.59681093 2.29612756 14.59681093 2 22 C-1.81497469 23.88765899 -4.75663933 24.57995818 -9 24 C-14.15184135 20.75499208 -18.31899978 16.10024055 -22.44091797 11.66699219 C-23.72948215 10.28924145 -25.07838692 8.96819939 -26.44140625 7.6640625 C-28 6 -28 6 -28 4 C-24.64793462 3.32246925 -21.29306425 2.6599648 -17.9375 2 C-16.99455078 1.80921875 -16.05160156 1.6184375 -15.08007812 1.421875 C-9.95330295 0.42152862 -5.22312681 -0.231817 0 0 Z " fill="#FDFDFD" transform="translate(342,0)"/>
<path d="M0 0 C0.33 0 0.66 0 1 0 C1.04898438 1.12535156 1.09796875 2.25070313 1.1484375 3.41015625 C1.57066749 12.31599117 2.26798291 21.04085011 3.59765625 29.86328125 C3.95181799 32.62436741 4.07817916 35.22203399 4 38 C-4.86811861 35.22871293 -10.6514364 28.96313399 -15 21 C-16.33575072 18.02817877 -17 16.28284979 -17 13 C-15.54711914 11.57373047 -15.54711914 11.57373047 -13.53515625 10.1171875 C-12.81779297 9.58996094 -12.10042969 9.06273437 -11.36132812 8.51953125 C-10.60271484 7.97683594 -9.84410156 7.43414062 -9.0625 6.875 C-7.57395826 5.7894196 -6.08566393 4.70349983 -4.59765625 3.6171875 C-3.60004272 2.89958252 -3.60004272 2.89958252 -2.58227539 2.16748047 C-1.04207655 1.09179667 -1.04207655 1.09179667 0 0 Z " fill="#FDF9F9" transform="translate(176,151)"/>
<path d="M0 0 C0.64750694 2.40884463 1.17062495 4.74175675 1.625 7.1875 C1.82609375 8.1784668 1.82609375 8.1784668 2.03125 9.18945312 C2.80318667 13.17910542 3.13887857 16.94095829 3 21 C-0.31051247 20.27482159 -3.30423975 19.12360239 -6.4296875 17.8203125 C-7.47253906 17.38589844 -8.51539063 16.95148438 -9.58984375 16.50390625 C-11.21599609 15.82134766 -11.21599609 15.82134766 -12.875 15.125 C-13.95136719 14.67769531 -15.02773437 14.23039063 -16.13671875 13.76953125 C-21.17740171 11.66251334 -26.16364661 9.54456223 -31 7 C-24.76261131 -0.9384947 -9.15155053 -4.57577527 0 0 Z " fill="#FDF8F8" transform="translate(202,124)"/>
<path d="M0 0 C6.9541895 1.56469264 11.71663694 5.83386807 15.80859375 11.5078125 C18.39683314 15.66637458 20.24430432 19.11837963 21 24 C18.94127451 25.77538699 16.87827001 27.54534184 14.8125 29.3125 C13.9452832 30.06176758 13.9452832 30.06176758 13.06054688 30.82617188 C12.20493164 31.55610352 12.20493164 31.55610352 11.33203125 32.30078125 C10.81358643 32.74591064 10.2951416 33.19104004 9.76098633 33.6496582 C7.61264116 35.2970306 5.33903848 36.6412297 3 38 C2.94465088 37.23969482 2.88930176 36.47938965 2.83227539 35.69604492 C2.5766905 32.19312233 2.31960381 28.69031143 2.0625 25.1875 C1.97548828 23.99189453 1.88847656 22.79628906 1.79882812 21.56445312 C1.26946053 14.36897504 0.68304696 7.18256514 0 0 Z " fill="#FDF8F8" transform="translate(205,126)"/>
<path d="M0 0 C5.4367976 0.55852667 9.9183367 1.93957617 14.9375 4.0625 C15.62134766 4.34416016 16.30519531 4.62582031 17.00976562 4.91601562 C18.67613946 5.6035405 20.33850727 6.30076175 22 7 C18.24308221 10.07448141 14.3487507 12.90416999 10.375 15.6875 C4.7037723 19.68797604 -0.68205363 23.90544087 -5.98828125 28.3828125 C-8 30 -8 30 -9 30 C-9.69006112 17.77058356 -7.5341363 9.62695193 0 0 Z " fill="#FDF9F9" transform="translate(168,133)"/>
<path d="M0 0 C3.39836481 1.33450208 6.73492363 2.75827361 10.0546875 4.27734375 C10.99957031 4.70853516 11.94445312 5.13972656 12.91796875 5.58398438 C14.38169922 6.25397461 14.38169922 6.25397461 15.875 6.9375 C21.89093445 9.68912914 27.90484501 12.42781064 34 15 C31.89123593 17.29213486 29.91387242 18.74684126 27.125 20.125 C26.46757812 20.45757812 25.81015625 20.79015625 25.1328125 21.1328125 C20.75004267 22.91481782 16.57073475 23.13676876 11.875 23.125 C10.32425781 23.12886719 10.32425781 23.12886719 8.7421875 23.1328125 C6 23 6 23 3 22 C2.49465273 19.27172635 1.99556155 16.54255306 1.5 13.8125 C1.35691406 13.04357422 1.21382812 12.27464844 1.06640625 11.48242188 C0.36761285 7.60578227 -0.19039017 3.958529 0 0 Z " fill="#FDF9F9" transform="translate(180,169)"/>
<path d="M0 0 C0.49453712 10.05558808 -1.20497718 18.44117018 -7.40234375 26.5390625 C-9.32362009 28.29592644 -10.4363413 28.62313554 -13 29 C-15.10644531 28.47094727 -15.10644531 28.47094727 -17.328125 27.56640625 C-18.52695313 27.0878418 -18.52695313 27.0878418 -19.75 26.59960938 C-20.575 26.25736328 -21.4 25.91511719 -22.25 25.5625 C-23.09046875 25.22412109 -23.9309375 24.88574219 -24.796875 24.53710938 C-26.86882572 23.70126562 -28.93603615 22.85533351 -31 22 C-27.94975145 18.73711393 -24.70152423 16.30286373 -21 13.8125 C-15.2973352 9.94898336 -9.80768213 5.87085304 -4.36328125 1.65234375 C-2 0 -2 0 0 0 Z " fill="#FDF9F9" transform="translate(227,153)"/>
<path d="M0 0 C2.7225 -0.103125 5.445 -0.20625 8.25 -0.3125 C9.10110352 -0.35802002 9.95220703 -0.40354004 10.82910156 -0.45043945 C14.87073941 -0.52462868 16.43736888 -0.50087893 19.5625 2.28125 C21.470361 5.8895958 20.91652448 8.10477098 20 12 C19.01 12.33 18.02 12.66 17 13 C17.28875 13.69867188 17.5775 14.39734375 17.875 15.1171875 C18.24625 16.02726562 18.6175 16.93734375 19 17.875 C19.37125 18.77992188 19.7425 19.68484375 20.125 20.6171875 C21 23 21 23 21 25 C18.69 25 16.38 25 14 25 C13.74605469 24.36191406 13.49210938 23.72382813 13.23046875 23.06640625 C12.88628906 22.24011719 12.54210937 21.41382813 12.1875 20.5625 C11.85105469 19.73878906 11.51460937 18.91507812 11.16796875 18.06640625 C10.11596912 15.66627512 10.11596912 15.66627512 7 15 C7 18.3 7 21.6 7 25 C4.69 25 2.38 25 0 25 C0 16.75 0 8.5 0 0 Z M7 4 C7 6.31 7 8.62 7 11 C9.41645782 11.16687448 9.41645782 11.16687448 12 11 C12.66 10.34 13.32 9.68 14 9 C13.59471099 6.21762345 13.59471099 6.21762345 12 4 C10.33382885 3.95936168 8.66611905 3.957279 7 4 Z " fill="#FFFFFF" transform="translate(196,249)"/>
<path d="M0 0 C2.64 0 5.28 0 8 0 C9.98 3.63 11.96 7.26 14 11 C14.33 7.37 14.66 3.74 15 0 C16.65 0 18.3 0 20 0 C20 8.25 20 16.5 20 25 C17.69 25 15.38 25 13 25 C10.69 20.71 8.38 16.42 6 12 C5.67 16.29 5.34 20.58 5 25 C3.35 25 1.7 25 0 25 C0 16.75 0 8.5 0 0 Z " fill="#FFFFFF" transform="translate(294,249)"/>
<path d="M0 0 C2.53790958 1.77990561 3.37894971 3.24421451 5 6 C5 6.99 5 7.98 5 9 C3.02 9 1.04 9 -1 9 C-1.33 8.01 -1.66 7.02 -2 6 C-3.98 6 -5.96 6 -8 6 C-8 10.29 -8 14.58 -8 19 C-6.02 18.67 -4.04 18.34 -2 18 C-1.67 17.34 -1.34 16.68 -1 16 C-2.65 16 -4.3 16 -6 16 C-6 14.68 -6 13.36 -6 12 C-2.37 12 1.26 12 5 12 C5 16.29 5 20.58 5 25 C3.35 24.67 1.7 24.34 0 24 C-0.66 24.33 -1.32 24.66 -2 25 C-9.13230769 25.70153846 -9.13230769 25.70153846 -12.9375 22.625 C-16.65914461 17.8883614 -16.51420549 13.88178915 -16 8 C-13.02438249 0.06501996 -7.98476709 -1.48760788 0 0 Z " fill="#FFFFFF" transform="translate(333,249)"/>
<path d="M0 0 C2.31 0 4.62 0 7 0 C7.33 2.31 7.66 4.62 8 7 C8.27972656 6.4946875 8.55945313 5.989375 8.84765625 5.46875 C10.1110842 3.42126548 11.28545186 1.69332848 13 0 C16.8125 -0.4375 16.8125 -0.4375 20 0 C19.60425781 0.47308594 19.20851562 0.94617188 18.80078125 1.43359375 C15.74014317 5.46548377 15.74014317 5.46548377 15.23046875 10.32421875 C16.00860404 12.65072477 16.91456793 14.80067883 18 17 C18.556875 18.134375 19.11375 19.26875 19.6875 20.4375 C20.120625 21.283125 20.55375 22.12875 21 23 C21 23.66 21 24.32 21 25 C18.69 25 16.38 25 14 25 C12.68 22.36 11.36 19.72 10 17 C9.34 17.33 8.68 17.66 8 18 C7.59270772 20.32156597 7.25561323 22.6568787 7 25 C4.69 25 2.38 25 0 25 C0 16.75 0 8.5 0 0 Z " fill="#FFFFFF" transform="translate(221,249)"/>
<path d="M0 0 C2.64 0 5.28 0 8 0 C10.45973365 5.37390489 12.16593342 10.73277455 13.6875 16.4375 C13.91244141 17.26443359 14.13738281 18.09136719 14.36914062 18.94335938 C14.91728971 20.96101454 15.45928664 22.98033943 16 25 C13.36 25 10.72 25 8 25 C7.67 23.02 7.34 21.04 7 19 C4.69 19 2.38 19 0 19 C-0.33 20.98 -0.66 22.96 -1 25 C-3.31 25 -5.62 25 -8 25 C-5.36 16.75 -2.72 8.5 0 0 Z M3 9 C2.67 10.98 2.34 12.96 2 15 C3.32 14.67 4.64 14.34 6 14 C5.34 12.35 4.68 10.7 4 9 C3.67 9 3.34 9 3 9 Z " fill="#FFFFFF" transform="translate(179,249)"/>
<path d="M0 0 C1.53637695 1.21166992 1.53637695 1.21166992 2.98828125 2.73046875 C3.52686768 3.28387939 4.0654541 3.83729004 4.62036133 4.4074707 C5.17876709 4.99488037 5.73717285 5.58229004 6.3125 6.1875 C7.46686069 7.37423653 8.623093 8.55915557 9.78125 9.7421875 C10.33425781 10.30776367 10.88726562 10.87333984 11.45703125 11.45605469 C14.15863249 14.1593658 17.03827479 16.58929344 20 19 C19 21 19 21 16.7421875 21.87890625 C9.16485521 23.68549092 9.16485521 23.68549092 6.1015625 21.8828125 C4.98382391 20.69964531 3.91349803 19.47066426 2.8828125 18.2109375 C0.61655194 15.54972696 -1.90052014 13.49934917 -4.625 11.3125 C-5.52476562 10.58675781 -6.42453125 9.86101563 -7.3515625 9.11328125 C-9.1606131 7.66977627 -10.98993746 6.25141093 -12.8359375 4.85546875 C-13.55007812 4.24316406 -14.26421875 3.63085938 -15 3 C-15 2.34 -15 1.68 -15 1 C-13.25215171 0.63536268 -11.50159498 0.2836922 -9.75 -0.0625 C-8.28820312 -0.35833984 -8.28820312 -0.35833984 -6.796875 -0.66015625 C-4.01030936 -0.99874733 -2.61182868 -0.89818256 0 0 Z " fill="#0C0C0C" transform="translate(207,26)"/>
<path d="M0 0 C1.53637695 1.21166992 1.53637695 1.21166992 2.98828125 2.73046875 C3.52686768 3.28387939 4.0654541 3.83729004 4.62036133 4.4074707 C5.17876709 4.99488037 5.73717285 5.58229004 6.3125 6.1875 C7.46686069 7.37423653 8.623093 8.55915557 9.78125 9.7421875 C10.33425781 10.30776367 10.88726562 10.87333984 11.45703125 11.45605469 C14.15863249 14.1593658 17.03827479 16.58929344 20 19 C19 21 19 21 16.7421875 21.87890625 C9.16485521 23.68549092 9.16485521 23.68549092 6.1015625 21.8828125 C4.98382391 20.69964531 3.91349803 19.47066426 2.8828125 18.2109375 C0.61655194 15.54972696 -1.90052014 13.49934917 -4.625 11.3125 C-5.52476562 10.58675781 -6.42453125 9.86101563 -7.3515625 9.11328125 C-9.1606131 7.66977627 -10.98993746 6.25141093 -12.8359375 4.85546875 C-13.55007813 4.24316406 -14.26421875 3.63085938 -15 3 C-15 2.34 -15 1.68 -15 1 C-13.25215171 0.63536268 -11.50159498 0.2836922 -9.75 -0.0625 C-8.28820312 -0.35833984 -8.28820312 -0.35833984 -6.796875 -0.66015625 C-4.01030936 -0.99874733 -2.61182868 -0.89818256 0 0 Z " fill="#050505" transform="translate(314,5)"/>
<path d="M0 0 C1.53637695 1.21166992 1.53637695 1.21166992 2.98828125 2.73046875 C3.52686768 3.28387939 4.0654541 3.83729004 4.62036133 4.4074707 C5.17876709 4.99488037 5.73717285 5.58229004 6.3125 6.1875 C7.46686069 7.37423653 8.623093 8.55915557 9.78125 9.7421875 C10.33425781 10.30776367 10.88726562 10.87333984 11.45703125 11.45605469 C14.15863249 14.1593658 17.03827479 16.58929344 20 19 C19 21 19 21 16.7421875 21.87890625 C9.16485521 23.68549092 9.16485521 23.68549092 6.1015625 21.8828125 C4.5 20.1875 4.5 20.1875 2.8828125 18.203125 C0.62448983 15.56060635 -1.89115291 13.58083612 -4.625 11.4375 C-8.62699218 8.22269473 -11.94154527 5.1130943 -15 1 C-13.25215171 0.63536268 -11.50159498 0.2836922 -9.75 -0.0625 C-8.28820312 -0.35833984 -8.28820312 -0.35833984 -6.796875 -0.66015625 C-4.01030936 -0.99874733 -2.61182868 -0.89818256 0 0 Z " fill="#060606" transform="translate(242,19)"/>
<path d="M0 0 C1.53637695 1.21166992 1.53637695 1.21166992 2.98828125 2.73046875 C3.52686768 3.28387939 4.0654541 3.83729004 4.62036133 4.4074707 C5.17876709 4.99488037 5.73717285 5.58229004 6.3125 6.1875 C7.46686069 7.37423653 8.623093 8.55915557 9.78125 9.7421875 C10.33425781 10.30776367 10.88726562 10.87333984 11.45703125 11.45605469 C14.15863249 14.1593658 17.03827479 16.58929344 20 19 C19 21 19 21 16.7421875 21.87890625 C9.16485521 23.68549092 9.16485521 23.68549092 6.1015625 21.8828125 C4.5 20.1875 4.5 20.1875 2.8828125 18.203125 C0.62448983 15.56060635 -1.89115291 13.58083612 -4.625 11.4375 C-8.62699218 8.22269473 -11.94154527 5.1130943 -15 1 C-13.25215171 0.63536268 -11.50159498 0.2836922 -9.75 -0.0625 C-8.28820312 -0.35833984 -8.28820312 -0.35833984 -6.796875 -0.66015625 C-4.01030936 -0.99874733 -2.61182868 -0.89818256 0 0 Z " fill="#060606" transform="translate(280,12)"/>
<path d="M0 0 C4.62 0 9.24 0 14 0 C12.34670372 2.90170368 10.68398277 5.79853473 8.96875 8.6640625 C7.73896244 10.7478692 6.56198422 12.8648577 5.46875 15.0234375 C3.84342534 17.9175105 2.59303682 19.91292158 0 22 C-4.77848899 22.82967171 -9.2033689 22.59874729 -14 22 C-11.08056653 16.54192874 -7.64382332 11.50092169 -4.08618164 6.44458008 C-1.87968603 3.3224098 -1.87968603 3.3224098 0 0 Z " fill="#050505" transform="translate(286,53)"/>
<path d="M0 0 C4.62 0 9.24 0 14 0 C12.34670372 2.90170368 10.68398277 5.79853473 8.96875 8.6640625 C7.73896244 10.7478692 6.56198422 12.8648577 5.46875 15.0234375 C3.84342534 17.9175105 2.59303682 19.91292158 0 22 C-4.77848899 22.82967171 -9.2033689 22.59874729 -14 22 C-11.08056653 16.54192874 -7.64382332 11.50092169 -4.08618164 6.44458008 C-1.87968603 3.3224098 -1.87968603 3.3224098 0 0 Z " fill="#050505" transform="translate(251,53)"/>
<path d="M0 0 C4.62 0 9.24 0 14 0 C12.34670372 2.90170368 10.68398277 5.79853473 8.96875 8.6640625 C7.73896244 10.7478692 6.56198422 12.8648577 5.46875 15.0234375 C3.84342534 17.9175105 2.59303682 19.91292158 0 22 C-4.77848899 22.82967171 -9.2033689 22.59874729 -14 22 C-11.08056653 16.54192874 -7.64382332 11.50092169 -4.08618164 6.44458008 C-1.87968603 3.3224098 -1.87968603 3.3224098 0 0 Z " fill="#050505" transform="translate(216,53)"/>
<path d="M0 0 C1.65 0 3.3 0 5 0 C5 7.26 5 14.52 5 22 C-1.27 22 -7.54 22 -14 22 C-4.85714286 4.85714286 -4.85714286 4.85714286 0 0 Z " fill="#FCFCFC" transform="translate(338,53)"/>
<path d="M0 0 C2.31 0 4.62 0 7 0 C7 8.25 7 16.5 7 25 C4.69 25 2.38 25 0 25 C0 16.75 0 8.5 0 0 Z " fill="#FFFFFF" transform="translate(284,249)"/>
<path d="M0 0 C5.67152369 0.27665969 9.46294096 2.87933249 14 6 C13.68988845 9.07527283 13.53019713 10.55634331 11.109375 12.58203125 C10.33078125 12.98808594 9.5521875 13.39414063 8.75 13.8125 C7.98171875 14.23144531 7.2134375 14.65039062 6.421875 15.08203125 C3.77939171 16.08361766 1.80172996 16.17386622 -1 16 C-1.02685095 13.52076199 -1.04676547 11.0418116 -1.0625 8.5625 C-1.07506836 7.50192383 -1.07506836 7.50192383 -1.08789062 6.41992188 C-1.09653588 4.61306441 -1.05220011 2.80612397 -1 1 C-0.67 0.67 -0.34 0.34 0 0 Z " fill="#FDF9F9" transform="translate(188,149)"/>
<path d="M0 0 C0.103125 0.639375 0.20625 1.27875 0.3125 1.9375 C0.539375 2.618125 0.76625 3.29875 1 4 C1.99 4.33 2.98 4.66 4 5 C4.33 9.95 4.66 14.9 5 20 C4.01 20 3.02 20 2 20 C1.66254646 17.60468244 1.3299171 15.20885732 1 12.8125 C0.90460938 12.13896484 0.80921875 11.46542969 0.7109375 10.77148438 C0.21675387 7.15335423 -0.11346131 3.65203599 0 0 Z " fill="#D74E4E" transform="translate(177,164)"/>
<path d="M0 0 C0.59329102 0.20810303 1.18658203 0.41620605 1.79785156 0.63061523 C0.59128906 1.40405273 0.59128906 1.40405273 -0.63964844 2.19311523 C-5.00961998 5.09595005 -9.09035648 8.37773093 -13.20214844 11.63061523 C-13.86214844 10.97061523 -14.52214844 10.31061523 -15.20214844 9.63061523 C-13.13030546 7.92703337 -11.04672521 6.24332813 -8.95214844 4.56811523 C-8.365625 4.0827832 -7.77910156 3.59745117 -7.17480469 3.09741211 C-2.69410649 -0.451905 -2.69410649 -0.451905 0 0 Z " fill="#D54747" transform="translate(225.2021484375,152.369384765625)"/>
<path d="M0 0 C0.33 0 0.66 0 1 0 C1.22181406 2.43695715 1.42791119 4.873526 1.625 7.3125 C1.68945312 8.00279297 1.75390625 8.69308594 1.8203125 9.40429688 C2.11802847 13.2559972 2.20763723 14.68854416 0 18 C-1.35119149 15.29761702 -1.13237128 13.13985554 -1.125 10.125 C-1.12757813 9.07570312 -1.13015625 8.02640625 -1.1328125 6.9453125 C-1.01998664 4.44323315 -0.72508762 2.38243077 0 0 Z " fill="#D74F4F" transform="translate(205,129)"/>
<path d="M0 0 C2.97 0.99 5.94 1.98 9 3 C8.01 4.485 8.01 4.485 7 6 C4.69 5.01 2.38 4.02 0 3 C0 2.01 0 1.02 0 0 Z " fill="#D74F4F" transform="translate(205,178)"/>
</svg>
